<?xml version="1.0" encoding="UTF-8"?>
<svg id="Layer_1" data-name="Layer 1" xmlns="http://www.w3.org/2000/svg" viewBox="0 0 720 720">
  <defs>
    <style>
      .cls-1 {
        fill: #0177ff;
      }
    </style>
  </defs>
  <path class="cls-1" d="M545.52,297.58l-173.3-231.47c-6.1-8.15-18.32-8.15-24.42,0l-173.3,231.47c-40.55,56.2-56.61,131.24-30.83,209.9,30.24,92.27,119.25,152.52,216.35,152.52h0s0,0,0,0c97.1,0,186.11-60.25,216.35-152.52,25.78-78.66,9.71-153.69-30.83-209.9ZM316.47,209.75l40.48-54.06c1.53-2.04,4.58-2.04,6.11,0l40.48,54.06c6.4,9.02,14.24,25.94,6.9,49.03-6.82,21.44-27.94,35.1-50.43,35.1h0s0,0,0,0c-22.5,0-43.62-13.66-50.43-35.1-7.34-23.09.51-40.01,6.9-49.03ZM255.55,300.5c1.06-3.03,5.15-3.23,6.82-.49,20.09,32.9,56.26,54.89,97.63,54.89s77.54-21.99,97.63-54.89c1.67-2.74,5.76-2.54,6.82.49,3.95,11.3,6.15,23.16,6.15,35.33,0,60.98-49.62,110.53-110.6,110.53-60.98,0-110.6-49.55-110.6-110.53,0-12.17,2.2-24.03,6.15-35.33ZM516.82,490.19c-22.14,58.3-75.71,100.83-137.68,107.73-6.45.72-12.83,1.05-19.14,1.05s-12.69-.33-19.14-1.05c-61.98-6.9-115.54-49.43-137.68-107.73-11.17-29.42-13.4-58.95-8.59-86.93.65-3.76,5.78-4.55,7.26-1.03,25.96,61.79,86.93,105.23,158.15,105.23s132.2-43.44,158.15-105.23c1.48-3.52,6.61-2.73,7.26,1.03,4.81,27.98,2.59,57.51-8.59,86.93Z"/>
</svg>